<svg width="30" height="30" viewBox="0 0 30 30" fill="none" xmlns="http://www.w3.org/2000/svg">
<path fill-rule="evenodd" clip-rule="evenodd" d="M15 8.38525C11.2 8.38525 8 11.5853 8 15.3853C8 19.1853 11.2 22.3853 15 22.3853C18.8 22.3853 22 19.2853 22 15.3853C22 11.4853 18.9 8.38525 15 8.38525ZM14.5 11.3853H15.5V16.3853H14.5V11.3853ZM15 19.5853C14.6 19.5853 14.2 19.1853 14.2 18.7853C14.2 18.3853 14.5 17.9853 15 17.9853C15.4 17.9853 15.8 18.3853 15.8 18.7853C15.8 19.1853 15.4 19.5853 15 19.5853Z" fill="#DA1E28"/>
<path opacity="0.01" fill-rule="evenodd" clip-rule="evenodd" d="M14.5002 11.3853H15.5002V16.3853H14.5002V11.3853ZM15.0002 19.5853C14.6002 19.5853 14.2002 19.1853 14.2002 18.7853C14.2002 18.3853 14.5002 17.9853 15.0002 17.9853C15.4002 17.9853 15.8002 18.3853 15.8002 18.7853C15.8002 19.1853 15.4002 19.5853 15.0002 19.5853Z" fill="black"/>
</svg>
