<svg width="30" height="30" viewBox="0 0 30 30" fill="none" xmlns="http://www.w3.org/2000/svg">
<path d="M7.21 14.4082C8.22751 13.1271 10.7709 10.5977 15 10.5977C19.2297 10.5977 21.7738 13.1277 22.7901 14.4084C23.07 14.7612 23.07 15.2386 22.7901 15.5915C21.7738 16.8722 19.2297 19.4022 15 19.4022C10.7709 19.4022 8.22751 16.8728 7.21 15.5916C6.93 15.2387 6.93 14.7612 7.21 14.4082Z" stroke="#6F6F6F" stroke-width="2"/>
<path fill-rule="evenodd" clip-rule="evenodd" d="M15.0011 11.9131C13.2963 11.9131 11.9141 13.2953 11.9141 15.0001C11.9141 16.7049 13.2963 18.0871 15.0011 18.0871C16.7059 18.0871 18.0881 16.7049 18.0881 15.0001C18.0881 13.2953 16.7059 11.9131 15.0011 11.9131ZM13.4576 15.0001C13.4576 14.1481 14.1491 13.4566 15.0011 13.4566C15.8531 13.4566 16.5446 14.1481 16.5446 15.0001C16.5446 15.8521 15.8531 16.5436 15.0011 16.5436C14.1491 16.5436 13.4576 15.8521 13.4576 15.0001Z" fill="#6F6F6F"/>
</svg>
